<svg xmlns="http://www.w3.org/2000/svg" xmlns:xlink="http://www.w3.org/1999/xlink" id="a" viewBox="0 0 262.83 147.4"><defs><radialGradient id="b" cx="95.43" cy="93.6" fx="95.43" fy="93.6" r="246.54" gradientTransform="translate(0)" gradientUnits="userSpaceOnUse"><stop offset="0" stop-color="#e07541"/><stop offset=".1" stop-color="#de6e3e"/><stop offset=".25" stop-color="#da5b39"/><stop offset=".26" stop-color="#da5a39"/><stop offset=".26" stop-color="#d95939"/><stop offset=".37" stop-color="#d23b41"/><stop offset=".47" stop-color="#ce2847"/><stop offset=".53" stop-color="#cd2249"/><stop offset=".74" stop-color="#a42e60"/></radialGradient></defs><path d="M11.26,111.58h6.76v-1.17h-8.08v-1.88c2.22-.2,4.23-.48,6.14-.87l.26-.05-.65-1.22-.15.03c-4.29.87-8.66,1.32-12.99,1.32-.1,0-.19,0-.29,0h-.27s.35,1.25.35,1.25h.16c2.15-.04,4.23-.15,6.18-.34v1.77H.61v1.17h6.72c-.72.76-1.65,1.5-2.77,2.21-.81.52-1.54.95-2.25,1.29-.69.35-1.4.65-2.11.9l-.21.07.55,1.13.17-.06c1.55-.57,3.17-1.43,4.83-2.54.67-.46,1.3-.97,1.89-1.51.48-.43.89-.83,1.24-1.23v3.53h1.25v-3.53c1.67,1.88,4.24,3.61,7.64,5.13l.13.06,1-1.09-.27-.11c-3.19-1.29-5.6-2.71-7.18-4.24Z" fill="#231f20"/><path d="M3.84,124.74h1.25v-1.3h8.53v1.3h1.25v-9.09H3.84v9.09ZM5.09,118.89v-2.06h8.53v2.06H5.09ZM13.62,120.06v2.22H5.09v-2.22h8.53Z" fill="#231f20"/><path d="M27.7,110.62l.16.16.78-1.03-.13-.12c-.94-.88-1.95-1.67-3.1-2.41l-.16-.1-.71.95.18.12c.99.66,1.99,1.48,2.99,2.44Z" fill="#231f20"/><path d="M28.15,116.78l-1.04-.71-.08.27c-.77,2.63-1.86,5.07-3.23,7.26l-.1.16,1.13.79.11-.2c.72-1.32,1.32-2.53,1.82-3.7.53-1.26.98-2.51,1.35-3.72l.04-.14Z" fill="#231f20"/><path d="M25.36,113.7c.56.49,1.09,1.03,1.49,1.45l.16.17.78-1.01-.12-.12c-.99-1.03-2.03-1.92-3.11-2.65l-.16-.11-.71.92.16.12c.51.39,1.01.81,1.51,1.23Z" fill="#231f20"/><path d="M37.88,113.99h4.09v-1.17h-4.39v-2.46h3.39v-1.17h-3.39v-2.94h-1.25v2.94h-3.2v-2.94h-1.25v2.94h-2.86v1.17h2.86v2.46h-4v1.17h3.84c-.29.57-.68,1.18-1.14,1.8-.7.89-1.56,1.71-2.56,2.45l-.19.14.93.9.14-.1c.59-.45,1.07-.87,1.49-1.3.32-.31.63-.64.94-1.01v5.22c0,.4.04.7.13.97.08.25.23.44.45.57.1.14.41.26,1.58.34,1.04.06,2.5.1,4.21.1.88,0,1.55-.06,2.02-.19.49-.13.8-.37.87-.68.04-.09.08-.27.15-.78v-.06c.05-.41.1-1.01.16-1.79v-.13s-1.31-.64-1.31-.64l-.02.3c-.08,1.51-.16,2.23-.17,2.3-.11.2-.49.43-1.7.43-4.15,0-4.86-.17-4.96-.24-.06-.06-.1-.11-.13-.21-.02-.05-.04-.15-.02-.34v-1.97h5.7v-3.78c.85.85,1.85,1.64,3,2.37l.14.09.97-1.08-.22-.12c-1.87-1.06-3.31-2.25-4.28-3.55ZM36.33,110.36v2.46h-3.2v-2.46h3.2ZM32.57,118.89v-1.98h4.45v1.98h-4.45ZM32.16,115.73c.35-.55.67-1.13.96-1.75h3.31c.38.6.82,1.19,1.33,1.75h-5.59Z" fill="#231f20"/><path d="M64.65,120.54c-.07.7-.13,1.24-.19,1.64-.08.43-.14.74-.17.87-.03.07-.11.23-.21.23-.13,0-.28-.11-.45-.34-.21-.27-.44-.68-.69-1.24-.17-.3-.31-.62-.42-.96-.14-.35-.24-.69-.33-1.05h0c.95-1.36,1.76-3.62,2.4-6.72l.04-.19-1.32-.34-.04.21c-.23,1.19-.5,2.24-.82,3.21-.24.74-.5,1.4-.76,1.96-.14-.57-.25-1.16-.34-1.81-.13-.68-.23-1.43-.31-2.37-.07-.8-.13-1.63-.17-2.52h4.64v-1.17h-1.9l.95-.66-.08-.16c-.24-.46-.52-.91-.8-1.34-.24-.37-.54-.76-.92-1.24l-.12-.14-1.01.7.12.17c.27.38.59.82.88,1.27.28.44.52.91.72,1.3l.05.1h-2.6c-.06-1.03-.09-2.2-.07-3.56v-.2s-1.32,0-1.32,0v.2c-.02,1.34,0,2.51.06,3.57h-5.68v5.71c-.02.83-.07,1.63-.17,2.38l-.17-1.06-.25.15c-.59.34-1.24.66-1.94.94v-5.1h2.25v-1.17h-2.25v-5.01h-1.25v5.01h-2.38v1.17h2.38v5.6c-.36.15-.74.29-1.15.42-.41.14-.9.31-1.38.43l-.25.06.65,1.22.16-.05c.71-.21,1.53-.52,2.56-.97.81-.33,1.71-.75,2.93-1.35l.06-.03s0,.06-.01.09c-.14.81-.33,1.51-.58,2.08-.27.61-.59,1.17-.96,1.65-.38.49-.79.93-1.27,1.35l-.14.13.8,1,.16-.13c.51-.43.97-.9,1.41-1.45.43-.56.81-1.17,1.11-1.81.61-1.34.92-3.16.94-5.42v-.9h2.74c-.05.98-.11,2.05-.19,2.85-.08.81-.16,1.37-.23,1.65-.09.26-.25.57-.56.57-.13.01-.36.01-.69-.08-.31-.06-.63-.16-.99-.3l-.27-.11v1.36l.13.05c.39.14.78.25,1.16.32.31.08.62.11.82.08.32.03.62-.08.83-.3.22-.17.41-.46.6-.88.14-.37.26-1.04.39-2.16.09-.93.17-2.18.26-4.03v-.21s-4,0-4,0v-2.59h4.5c.12,2.04.34,3.9.64,5.52.09.58.17,1.02.28,1.45.09.44.2.85.33,1.23-.96,1.35-2.24,2.58-3.91,3.75l-.17.12.77,1,.16-.1c1.47-.96,2.66-2.01,3.64-3.2.22.66.49,1.24.79,1.75.71,1.26,1.37,1.88,2.01,1.88.42,0,.79-.17,1.08-.52.13-.24.25-.59.37-1.07.12-.47.22-1.07.3-1.82v-.11s-1.15-.93-1.15-.93l-.05.46Z" fill="#231f20"/><path d="M81.45,108.84l-.09-.16c-.26-.45-.57-.9-.94-1.38-.31-.4-.65-.81-1.07-1.27l-.12-.13-1.1.76.15.17c.65.72,1.2,1.46,1.64,2.21h-9v1.33h8.61v3.15h-6.46v9.25h1.41v-7.92h5.06v9.91h1.41v-9.91h5.29v5.79c0,.4-.09.54-.14.59-.03.02-.08.06-.2.05-.77.03-1.68-.18-2.7-.6l-.3-.12.12,1.37.11.05c.45.18.93.32,1.45.41.43.09.88.14,1.32.14,1.14,0,1.74-.6,1.74-1.74v-7.28h-6.7v-3.15h8.61v-1.33h-8.37l.27-.2Z" fill="#231f20"/><path d="M110.36,121.38c-.84-.76-1.54-1.56-2.16-2.48-.66-.86-1.23-1.81-1.67-2.84-.42-.96-.73-1.95-.95-3.01h6.91v-1.41h-8.6c.19-1.43.36-3.13.52-5.18l.02-.22h-1.41v.19c-.07.67-.13,1.3-.18,1.91-.03.32-.06.64-.09.94-.08.77-.18,1.58-.29,2.36h-7.14v1.41h6.91c-.21,1.04-.46,2.02-.75,2.91-.31.92-.65,1.68-.99,2.25-1.27,2.08-3.26,3.86-5.91,5.31l-.25.13,1.08,1,.13-.07c1.49-.82,2.72-1.66,3.76-2.59,1.05-.95,1.91-2,2.54-3.1.74-1.27,1.36-3.23,1.83-5.83h.42c.25,1.25.58,2.37,1.03,3.41.52,1.2,1.1,2.23,1.77,3.12.69,1.06,1.44,1.98,2.29,2.81.81.79,1.74,1.53,2.85,2.25l.15.1,1.06-1.24-.2-.12c-1.01-.61-1.9-1.28-2.67-2.01Z" fill="#231f20"/><path d="M120.37,115.52h14.38v1.99h1.23v-3.16h-1.27l.37-7.17h-4.73v1.17h3.44l-.07,1.22h-3.44v1.19h3.38l-.06,1.14h-3.64v1.17h3.57l-.08,1.29h-3.9l.67-.75-.16-.13c-.24-.2-.49-.41-.73-.65-.18-.15-.37-.31-.56-.48.36-.35.71-.77,1.09-1.3l.09-.13-.42-.47.69-.76-.16-.13c-.23-.19-.45-.39-.68-.6-.17-.13-.33-.27-.5-.42.19-.19.39-.4.59-.63.26-.28.49-.58.7-.86l.1-.13-.75-.84-.15.2c-.38.53-.83,1.04-1.37,1.55-.52-.37-1.09-.76-1.82-1.23l-.15-.1-.71.84.19.13c.39.26.78.53,1.18.81l.42.29c-.29.21-.54.38-.79.52-.34.23-.71.42-1.09.57h-.02s0-.09,0-.09h-3.69v-.69c.54-.09,1.12-.24,1.76-.43.6-.19,1.19-.43,1.82-.72l.2-.09-.68-1.11-.16.07c-1.3.57-2.65.96-4.03,1.15l-.18.02.16,6.59h-1.3v3.16h1.25v-1.99ZM128.02,109.3c.34.32.68.65,1.04.99-.35.49-.74.94-1.17,1.35-.24-.16-.48-.33-.73-.5-.3-.21-.59-.41-.9-.61l-.09-.06c.27-.14.54-.29.83-.47.37-.22.71-.45,1.01-.69ZM127.9,113.11c.2.19.4.37.6.54.23.23.47.47.72.7h-3.36c.7-.31,1.37-.72,2.03-1.25ZM125.22,110.07l.41.66.16-.08c.08-.04.15-.07.23-.11l-.61.74.56.39c.33.23.67.46,1.01.7-.53.4-1.15.76-1.84,1.07l-.21.1.52.81h-3.87l-.02-1.37h3.78v-1.17h-3.81v-1.06s3.67,0,3.67,0v-.68Z" fill="#231f20"/><path d="M136.61,119.81h-8.59s0-.03-.01-.04v-.03c.98-.29,1.86-.61,2.68-.98.94-.4,1.76-.81,2.51-1.27l.1-.06v-1h-11.42v1.17h8.76c-1,.42-2.06.78-3.17,1.07-.02-.02-.03-.05-.05-.09l-.03-.05c-.05-.07-.1-.13-.13-.21l-.08-.2-1.09.5.12.19c.06.09.11.19.17.29.06.11.12.22.18.3.07.14.13.27.19.4h-8.27v1.17h8.62l.09.63c.04.28.06.57.08.85-.02.24-.04.47-.07.62-.03.13-.07.18-.07.18-.06.03-.13.05-.2.06-.09.02-.16.03-.23.03-.6,0-1.26-.15-2.01-.46l-.3-.12.12,1.39.13.04c.38.12.76.22,1.15.3.43.07.8.1,1.13.1.44,0,.82-.11,1.12-.35.33-.28.48-.86.48-1.8v-.12c-.03-.21-.05-.45-.08-.7l-.02-.11c-.02-.17-.05-.36-.08-.55h8.26v-1.17Z" fill="#231f20"/><path d="M11.2,139.66c-.16.33-.38.66-.64.98-.26.32-.55.61-.88.87-.32.25-.68.46-1.06.62-.38.16-.77.24-1.18.24-.69,0-1.33-.12-1.92-.36-.59-.24-1.1-.59-1.53-1.03s-.77-1-1.02-1.65c-.25-.65-.37-1.39-.37-2.21s.13-1.58.38-2.23c.25-.65.6-1.22,1.03-1.67s.95-.81,1.54-1.06c.58-.25,1.22-.37,1.9-.37.78,0,1.48.22,2.08.65.6.44,1.16,1.14,1.65,2.09l.05.1,1.06-.7-.05-.09c-.25-.41-.55-.8-.9-1.18s-.75-.71-1.2-.99c-.45-.29-.95-.52-1.5-.69-.55-.17-1.15-.26-1.79-.26s-1.31.08-1.91.23c-.6.16-1.15.38-1.65.66-.5.28-.96.62-1.36,1.02-.4.4-.74.83-1.02,1.3-.28.47-.49.98-.64,1.52-.15.54-.22,1.1-.22,1.66,0,.85.16,1.67.48,2.44.32.76.78,1.44,1.36,2.02.59.57,1.3,1.03,2.11,1.36.82.33,1.74.5,2.74.5.69,0,1.33-.09,1.89-.26.56-.17,1.07-.4,1.52-.69.45-.29.85-.63,1.19-1,.34-.37.64-.77.89-1.17l.05-.09-1.03-.66-.05.1Z" fill="#b01117"/><path d="M16.33,129.46c-.1-.1-.23-.19-.37-.25-.28-.12-.61-.12-.89,0-.14.06-.26.14-.37.25-.11.11-.19.23-.25.37-.06.14-.09.29-.09.45s.03.31.09.45c.06.14.14.26.25.37.1.1.23.19.37.25.14.06.29.09.45.09s.31-.03.45-.09c.14-.06.26-.14.37-.25.11-.1.19-.23.25-.37.06-.14.09-.29.09-.45s-.03-.31-.09-.45c-.06-.14-.14-.26-.25-.37Z" fill="#b01117"/><polygon points="14.52 134.09 14.52 143.14 16.55 143.14 16.55 133.53 15.91 133.53 14.52 134.09" fill="#b01117"/><path d="M23.73,141.49c-.12.14-.26.26-.42.36-.15.09-.32.14-.51.14-.13,0-.25-.02-.36-.07-.11-.05-.2-.11-.28-.19-.08-.08-.14-.18-.19-.28-.05-.11-.07-.22-.07-.35v-6.4h2.06v-.99h-2.06v-3.14h-.63l-1.41.55v2.62l-1.53.42-.08.02v.53h1.61v6.4c0,.33.04.63.11.9.08.27.19.51.35.71.16.2.36.36.6.47.24.11.53.17.85.17.61,0,1.13-.13,1.55-.39.41-.25.76-.6,1.02-1.04l.05-.09-.62-.41-.06.07Z" fill="#b01117"/><path d="M30.37,140.24l-3.48-6.54h-2.32l4.78,8.91-.6,1.34c-.07.16-.16.34-.27.53-.1.18-.22.36-.36.52-.13.15-.28.28-.44.39-.15.1-.31.15-.49.15-.14,0-.28-.01-.4-.04-.12-.03-.23-.06-.33-.11-.1-.04-.2-.09-.28-.13-.09-.05-.17-.09-.25-.12l-.09-.04-.81,1.81-.03.07.06.05c.15.11.33.21.55.28.21.07.44.1.66.1.3,0,.61-.05.93-.16.32-.11.63-.28.92-.5.29-.22.58-.5.84-.84.26-.34.49-.74.69-1.2l4.78-11.01h-1.21l-2.85,6.54Z" fill="#b01117"/><path d="M48.1,138.85c0,.49-.08.97-.25,1.4-.17.43-.41.82-.72,1.14-.31.33-.69.59-1.13.78-.44.19-.95.29-1.5.29s-1.05-.1-1.5-.29c-.45-.19-.83-.45-1.14-.78-.31-.33-.56-.71-.73-1.14-.17-.43-.25-.91-.25-1.4v-7.87h-2.22v7.82c0,.64.11,1.24.34,1.8.22.56.56,1.06,1,1.47.44.42.99.75,1.63.99.64.24,1.39.36,2.22.36.93,0,1.75-.12,2.42-.36.67-.24,1.23-.57,1.66-.99.43-.41.76-.91.96-1.46.2-.55.3-1.15.3-1.77v-7.87h-1.09v7.87Z" fill="#b01117"/><path d="M58.82,134.38c-.22-.26-.48-.47-.77-.62-.29-.15-.61-.23-.95-.23-.63,0-1.26.16-1.88.47-.55.28-1.08.69-1.59,1.23v-1.7h-.63l-1.42.55v9.07h2.05v-6.9c.19-.18.39-.35.6-.5.22-.16.44-.3.66-.41.22-.11.44-.2.65-.27.43-.13.82-.13,1.13.02.16.07.31.19.43.33.12.14.22.33.29.55.07.22.1.48.1.78v6.41h2.04v-6.72c0-.39-.06-.77-.19-1.12-.12-.35-.3-.66-.51-.92Z" fill="#b01117"/><polygon points="62.24 134.09 62.24 143.14 64.27 143.14 64.27 133.53 63.63 133.53 62.24 134.09" fill="#b01117"/><path d="M64.06,129.46c-.1-.1-.23-.19-.37-.25-.28-.12-.61-.12-.89,0-.14.06-.26.14-.37.25-.11.11-.19.23-.25.37-.06.14-.09.29-.09.45s.03.31.09.45c.06.14.14.26.25.37.1.1.23.19.37.25.14.06.29.09.45.09s.31-.03.45-.09c.14-.06.26-.14.37-.25.11-.1.19-.23.25-.37.06-.14.09-.29.09-.45s-.03-.31-.09-.45c-.06-.14-.14-.26-.25-.37Z" fill="#b01117"/><polygon points="70.75 140.55 67.55 133.7 65.4 133.7 69.82 143.18 69.85 143.24 70.62 143.24 74.8 133.85 74.87 133.7 73.81 133.7 70.75 140.55" fill="#b01117"/><path d="M83.65,139.55c-.08.28-.22.55-.42.8-.2.26-.45.5-.74.7-.29.2-.61.37-.97.5-.35.12-.73.19-1.11.19-.45,0-.88-.11-1.26-.31-.38-.21-.72-.5-1-.87-.28-.37-.5-.82-.66-1.34-.15-.49-.23-1.02-.23-1.59h6.88v-.1c0-.52-.1-1.03-.31-1.51-.21-.48-.5-.91-.87-1.27-.37-.37-.82-.66-1.34-.88-.51-.22-1.09-.33-1.7-.33-.7,0-1.34.13-1.91.4-.56.26-1.06.63-1.46,1.1-.4.47-.72,1.03-.94,1.66-.22.64-.33,1.34-.33,2.08,0,.63.12,1.22.37,1.78.24.55.58,1.04.99,1.45.42.41.91.74,1.47.98.56.24,1.17.36,1.8.36.49,0,.97-.09,1.44-.28.47-.18.91-.44,1.31-.75.4-.31.75-.69,1.05-1.11.3-.42.52-.88.66-1.37l.02-.09-.72-.32-.03.11ZM77.28,136.67c.03-.3.1-.57.21-.83.12-.29.28-.54.47-.75.19-.21.41-.37.64-.49.52-.26,1.14-.21,1.64,0,.27.12.52.29.73.5.21.21.37.46.49.75.11.26.16.53.18.83h-4.35Z" fill="#b01117"/><path d="M92.06,133.64c-.57-.16-1.18-.15-1.75.03-.3.09-.59.23-.85.4-.27.17-.52.38-.74.61-.15.16-.28.33-.4.51l-.22-1.67h-.37l-1.41.54v9.08h2.04v-6.51c.12-.25.26-.48.42-.67.16-.19.34-.35.53-.47.19-.12.39-.22.6-.28.35-.1.71-.11,1.07-.08.14.01.27.04.4.08.13.04.26.11.38.18.12.08.24.18.36.3l.11.13.67-1.78-.07-.05c-.24-.16-.5-.28-.77-.36Z" fill="#b01117"/><path d="M99.48,138.6c-.26-.22-.55-.42-.88-.59-.32-.17-.65-.33-.99-.47l-.98-.42c-.32-.13-.6-.29-.85-.45-.24-.16-.44-.33-.58-.53-.14-.19-.21-.41-.21-.66,0-.15.04-.29.12-.42.08-.14.19-.26.33-.36.14-.1.32-.19.52-.25.2-.06.44-.09.69-.09.46,0,.91.14,1.32.4.42.27.8.69,1.14,1.24l.06.11.84-.75-.06-.08c-.28-.37-.56-.67-.82-.89-.26-.23-.52-.41-.79-.53-.26-.12-.53-.21-.81-.25-.27-.04-.57-.06-.87-.06-.47,0-.9.07-1.3.2-.39.13-.74.32-1.03.55s-.52.52-.68.85c-.16.33-.25.69-.25,1.07,0,.4.07.76.22,1.07.15.3.34.57.58.8.24.23.51.43.81.6.29.16.59.32.91.47.31.15.61.29.9.43.29.13.55.28.77.44.22.16.4.34.53.54.13.19.19.42.19.68,0,.16-.04.31-.11.46-.08.15-.19.29-.33.41-.14.12-.32.21-.51.28-.41.15-.95.13-1.36.02-.21-.06-.42-.16-.63-.29-.21-.13-.41-.31-.61-.52-.2-.21-.41-.48-.63-.79l-.07-.1-.91.82.06.08c.28.37.57.67.87.89.29.23.59.41.89.53.3.13.6.21.89.26.29.04.58.06.85.06.6,0,1.13-.07,1.58-.22.45-.15.83-.35,1.13-.61.3-.26.53-.57.68-.92.15-.35.22-.73.22-1.14s-.08-.76-.24-1.06c-.16-.3-.37-.56-.63-.79Z" fill="#b01117"/><path d="M104.25,129.46c-.1-.1-.23-.19-.37-.25-.28-.12-.61-.12-.89,0-.14.06-.26.14-.37.25-.11.11-.19.23-.25.37-.06.14-.09.29-.09.45s.03.31.09.45c.06.14.14.26.25.37.1.1.23.19.37.25.14.06.29.09.45.09s.31-.03.45-.09c.14-.06.26-.14.37-.25.11-.1.19-.23.25-.37.06-.14.09-.29.09-.45s-.03-.31-.09-.45c-.06-.14-.14-.26-.25-.37Z" fill="#b01117"/><polygon points="102.43 134.09 102.43 143.14 104.46 143.14 104.46 133.53 103.82 133.53 102.43 134.09" fill="#b01117"/><path d="M111.65,141.49c-.12.14-.26.26-.42.36-.15.09-.32.14-.51.14-.13,0-.25-.02-.36-.07-.11-.05-.2-.11-.28-.19-.08-.08-.14-.18-.19-.28-.05-.11-.07-.22-.07-.35v-6.4h2.06v-.99h-2.06v-3.14h-.63l-1.41.55v2.62l-1.53.42-.08.02v.53h1.61v6.4c0,.33.04.63.11.9.08.27.19.51.35.71.16.2.36.36.6.47.24.11.53.17.85.17.61,0,1.13-.13,1.55-.39.41-.25.76-.6,1.02-1.04l.05-.09-.62-.41-.06.07Z" fill="#b01117"/><path d="M118.29,140.24l-3.48-6.54h-2.32l4.78,8.91-.6,1.34c-.07.16-.16.34-.27.53-.1.18-.22.36-.36.52-.13.15-.28.28-.44.39-.15.1-.31.15-.49.15-.14,0-.28-.01-.4-.04-.12-.03-.23-.06-.33-.11-.1-.04-.2-.09-.28-.13-.09-.05-.17-.09-.25-.12l-.09-.04-.81,1.81-.03.07.06.05c.15.11.33.21.55.28.21.07.44.1.66.1.3,0,.61-.05.93-.16.32-.11.63-.28.92-.5.29-.22.58-.5.84-.84.26-.34.49-.74.69-1.2l4.78-11.01h-1.21l-2.85,6.54Z" fill="#b01117"/><path d="M135.05,134.87c-.44-.42-.97-.75-1.57-.99s-1.27-.36-1.98-.36-1.39.13-2,.39c-.61.26-1.14.62-1.58,1.08-.44.45-.79.99-1.04,1.6s-.37,1.27-.37,1.96.13,1.29.37,1.87c.25.58.6,1.09,1.04,1.52.44.43.97.78,1.58,1.03.61.25,1.28.38,2,.38s1.38-.14,1.99-.41c.6-.27,1.13-.65,1.57-1.12.44-.47.79-1.02,1.04-1.65s.37-1.3.37-2.01c0-.64-.13-1.25-.37-1.81-.25-.56-.6-1.05-1.04-1.47ZM132.79,142.2c-.28.17-.6.26-.94.26-.48,0-.92-.12-1.29-.37-.38-.25-.71-.59-.97-1.01-.27-.43-.47-.94-.61-1.51-.14-.58-.21-1.21-.21-1.87,0-.45.06-.88.19-1.28.13-.4.3-.75.51-1.05.21-.29.46-.53.73-.7.27-.17.55-.25.84-.25.57,0,1.07.12,1.46.36.4.24.73.57.97.99.25.42.43.92.55,1.49.11.57.17,1.2.17,1.86,0,.45-.06.88-.18,1.29-.12.4-.28.76-.49,1.07-.21.3-.46.54-.74.72Z" fill="#b01117"/><path d="M145.15,130.08c-.21-.23-.45-.43-.71-.59-.26-.16-.56-.28-.87-.37-.77-.21-1.63-.16-2.35.17-.43.2-.81.47-1.12.81-.32.34-.57.73-.76,1.19s-.28.94-.28,1.46v.96h-1.92v.99h1.92v8.45h2.05v-8.45h2.46v-.99h-2.46v-2.07c0-.22.03-.44.09-.66.06-.21.15-.4.26-.56.11-.16.24-.29.39-.39.15-.09.31-.14.49-.14.29,0,.54.06.73.18.2.12.36.27.49.46.13.19.24.41.33.65.09.24.17.48.23.72l.04.14,1.52-1.1-.03-.08c-.13-.29-.29-.55-.5-.78Z" fill="#b01117"/><polygon points="157.61 136.43 151.82 136.43 151.82 130.98 149.6 130.98 149.6 143.14 151.82 143.14 151.82 137.41 157.61 137.41 157.61 143.14 159.83 143.14 159.83 130.98 157.61 130.98 157.61 136.43" fill="#b01117"/><path d="M170.34,134.87c-.44-.42-.97-.75-1.57-.99s-1.27-.36-1.98-.36-1.39.13-2,.39c-.61.26-1.14.62-1.58,1.08-.44.45-.79.99-1.04,1.6s-.37,1.27-.37,1.96.13,1.29.37,1.87c.25.58.6,1.09,1.04,1.52.44.43.97.78,1.58,1.03.61.25,1.28.38,2,.38s1.38-.14,1.99-.41c.6-.27,1.13-.65,1.57-1.12.44-.47.79-1.02,1.04-1.65s.37-1.3.37-2.01c0-.64-.13-1.25-.37-1.81-.25-.56-.6-1.05-1.04-1.47ZM168.07,142.2c-.28.17-.6.26-.94.26-.48,0-.92-.12-1.29-.37-.38-.25-.71-.59-.97-1.01-.27-.43-.47-.94-.61-1.51-.14-.58-.21-1.21-.21-1.87,0-.45.06-.88.19-1.28.13-.4.3-.75.51-1.05.21-.29.46-.53.73-.7.27-.17.55-.25.84-.25.57,0,1.07.12,1.46.36.4.24.73.57.97.99.25.42.43.92.55,1.49.11.57.17,1.2.17,1.86,0,.45-.06.88-.18,1.29-.12.4-.28.76-.49,1.07-.21.3-.46.54-.74.72Z" fill="#b01117"/><path d="M180.92,134.38c-.22-.26-.48-.47-.77-.62-.29-.15-.61-.23-.95-.23-.63,0-1.26.16-1.88.47-.55.28-1.08.69-1.59,1.23v-1.7h-.63l-1.42.55v9.07h2.05v-6.9c.19-.18.39-.35.6-.5.22-.16.44-.3.66-.41.22-.11.44-.2.65-.27.43-.13.82-.13,1.13.02.16.07.31.19.43.33.12.14.22.33.29.55.07.22.1.48.1.78v6.41h2.04v-6.72c0-.39-.06-.77-.19-1.12-.12-.35-.3-.66-.51-.92Z" fill="#b01117"/><path d="M189.99,133.94c-.19-.08-.4-.15-.63-.21-.24-.06-.49-.11-.76-.15-.27-.04-.55-.05-.83-.05-.58,0-1.13.09-1.63.27-.5.18-.94.42-1.32.73-.38.31-.68.68-.89,1.09-.21.42-.32.86-.32,1.33,0,.63.18,1.2.55,1.69.32.43.75.77,1.27,1.03-.18.08-.36.18-.52.29-.23.15-.43.33-.61.52-.18.19-.32.39-.42.6-.11.22-.16.43-.16.63,0,.14.03.28.1.41.07.12.16.24.27.34.11.1.24.19.41.27.1.05.2.1.31.14-.19.15-.37.3-.56.45-.24.2-.47.41-.67.63-.2.22-.37.45-.5.69-.13.24-.2.5-.2.78,0,.31.1.6.3.84.2.24.49.45.89.63.38.17.87.3,1.45.39.57.09,1.25.14,2.02.14.86,0,1.64-.08,2.32-.25.68-.17,1.27-.41,1.75-.73.48-.31.85-.7,1.11-1.15s.39-.96.39-1.51c0-.31-.05-.6-.14-.85-.1-.26-.26-.48-.49-.67-.22-.19-.53-.34-.91-.44-.37-.11-.84-.17-1.39-.2l-3.41-.15c-.36-.02-.63-.08-.82-.18-.17-.09-.25-.2-.25-.35,0-.17.05-.35.16-.52.1-.16.23-.31.38-.44.18.05.38.1.6.13.25.04.5.05.73.05.64,0,1.23-.08,1.76-.23.53-.16,1-.38,1.38-.67.39-.29.69-.64.91-1.04.22-.41.33-.86.33-1.36,0-.32-.06-.64-.17-.97-.09-.26-.2-.49-.33-.7h1.66v-.98h-2.7c-.11-.09-.25-.17-.42-.24ZM184.91,144.15c.03-.13.09-.27.15-.4.07-.13.15-.26.25-.38.09-.11.19-.21.31-.3.13.02.33.04.59.07.29.03.64.06,1.03.09.39.03.81.05,1.27.07.44.02.9.03,1.35.03.35,0,.67.02.94.07.27.05.5.12.69.21.18.09.32.2.41.34.09.13.14.29.14.47,0,.17-.08.35-.24.52-.17.18-.41.35-.74.51-.33.16-.74.28-1.21.38-.47.09-1.02.14-1.63.14-.57,0-1.07-.04-1.5-.12-.43-.08-.79-.2-1.06-.33-.27-.14-.48-.29-.61-.47-.13-.17-.19-.34-.19-.52,0-.12.02-.24.05-.38ZM186.8,134.4c.21-.12.46-.18.75-.18s.58.08.84.23c.27.15.51.37.71.64.2.27.37.6.48.98.12.38.18.79.18,1.23,0,.3-.05.59-.16.85-.1.26-.24.49-.42.69s-.38.35-.6.46c-.5.24-1.07.21-1.51-.05-.24-.14-.46-.34-.63-.6-.18-.26-.32-.56-.42-.91-.1-.35-.15-.73-.15-1.14,0-.34.03-.66.1-.95.07-.29.17-.55.31-.76.13-.21.31-.38.52-.49Z" fill="#b01117"/><polygon points="207.47 130.98 205.84 130.98 199.68 136.16 199.68 130.98 197.47 130.98 197.47 143.14 199.68 143.14 199.68 137.21 206.16 143.12 206.19 143.14 209.06 143.14 201.37 136.12 207.47 130.98" fill="#b01117"/><path d="M217.79,134.87c-.44-.42-.97-.75-1.57-.99-.6-.24-1.27-.36-1.98-.36s-1.39.13-2,.39c-.61.26-1.14.62-1.58,1.08-.44.45-.79.99-1.04,1.6s-.37,1.27-.37,1.96.12,1.29.37,1.87c.25.58.6,1.09,1.04,1.52.44.43.97.78,1.57,1.03s1.28.38,2,.38,1.38-.14,1.99-.41c.6-.27,1.13-.65,1.57-1.12.44-.47.79-1.02,1.04-1.65s.37-1.3.37-2.01c0-.65-.13-1.26-.37-1.81-.25-.56-.59-1.05-1.04-1.47ZM215.53,142.2c-.28.17-.6.26-.94.26-.48,0-.92-.12-1.29-.37-.38-.25-.71-.59-.97-1.01-.27-.42-.47-.93-.61-1.51-.14-.58-.21-1.21-.21-1.87,0-.45.07-.88.19-1.28.13-.4.3-.75.51-1.05.21-.29.46-.53.73-.7.27-.17.55-.25.84-.25.57,0,1.07.12,1.46.36.4.24.73.57.97.99.25.42.43.92.55,1.49.11.58.17,1.2.17,1.86,0,.45-.06.89-.18,1.29-.12.4-.28.76-.49,1.07-.21.3-.46.54-.75.72Z" fill="#b01117"/><path d="M228.38,134.38c-.22-.26-.48-.47-.77-.62-.29-.15-.61-.23-.95-.23-.63,0-1.26.16-1.88.47-.55.28-1.08.69-1.59,1.23v-1.7h-.63l-1.42.55v9.07h2.05v-6.9c.18-.18.39-.35.6-.5.22-.16.44-.3.66-.41.22-.11.44-.2.65-.27.44-.13.82-.13,1.13.02.16.07.31.18.43.33.12.15.22.33.29.55.07.22.1.48.1.78v6.41h2.04v-6.72c0-.39-.06-.77-.19-1.12-.12-.35-.3-.66-.51-.92Z" fill="#b01117"/><path d="M240.56,134.19h-2.7c-.11-.09-.25-.17-.42-.24-.19-.08-.4-.15-.63-.21-.24-.06-.49-.11-.76-.15-.27-.04-.55-.05-.83-.05-.58,0-1.13.09-1.63.27-.5.18-.94.42-1.32.73-.38.31-.68.68-.89,1.09-.21.42-.32.86-.32,1.33,0,.63.18,1.2.55,1.69.32.43.75.77,1.27,1.03-.18.08-.36.18-.52.29-.23.15-.43.33-.61.52-.18.19-.32.39-.42.6-.11.22-.16.43-.16.63,0,.14.03.28.1.41.07.12.16.24.27.34.11.1.25.19.41.27.1.05.2.1.31.14-.19.15-.38.3-.56.45-.24.2-.47.41-.67.63-.2.22-.37.45-.5.69-.13.24-.2.5-.2.78,0,.31.1.6.3.84.2.24.49.45.89.63.38.17.87.3,1.45.39.57.09,1.25.14,2.02.14.86,0,1.64-.08,2.32-.25.68-.17,1.27-.41,1.75-.73.48-.31.85-.7,1.11-1.15s.39-.96.39-1.51c0-.31-.05-.6-.14-.85-.1-.26-.26-.48-.49-.67-.22-.19-.53-.34-.91-.44-.37-.11-.84-.17-1.39-.2l-3.41-.15c-.36-.02-.63-.08-.82-.18-.17-.09-.25-.2-.25-.35,0-.17.06-.35.16-.52.11-.17.23-.31.38-.44.17.05.38.1.6.13.25.04.5.05.73.05.64,0,1.23-.08,1.76-.23.53-.16,1-.38,1.38-.67.39-.29.69-.64.91-1.04.22-.41.33-.86.33-1.36,0-.32-.06-.64-.17-.97-.09-.26-.2-.49-.33-.7h1.66v-.98ZM232.37,144.15c.03-.13.09-.27.15-.4.07-.13.15-.26.25-.38.09-.11.19-.21.31-.3.13.02.33.04.59.07.3.03.64.06,1.03.09.39.03.81.05,1.27.07.44.02.9.03,1.35.03.35,0,.67.02.94.07.27.05.5.12.69.21.18.09.32.2.41.34.09.13.14.29.14.47,0,.17-.08.35-.24.52-.17.18-.41.35-.74.51-.33.16-.74.28-1.21.38-.47.09-1.02.14-1.63.14-.57,0-1.07-.04-1.5-.12-.43-.08-.79-.2-1.06-.33s-.48-.29-.61-.47c-.13-.17-.19-.34-.19-.52,0-.12.02-.24.05-.38ZM234.25,134.4c.21-.12.46-.18.75-.18s.58.08.84.23c.27.15.51.37.71.64.2.27.37.6.48.98.12.38.18.79.18,1.23,0,.3-.05.59-.16.85-.1.26-.24.49-.42.69s-.38.35-.6.46c-.49.24-1.07.21-1.51-.05-.24-.14-.46-.34-.63-.6-.18-.26-.32-.56-.42-.91-.1-.35-.15-.73-.15-1.14,0-.34.03-.66.1-.95.07-.29.17-.55.31-.76.13-.21.31-.38.52-.49Z" fill="#b01117"/><path d="M243.76.48c6.78-1.7,12.94,4.46,11.2,11.26l-24.24,94.67c-.03.13-.09.25-.14.37h.02s31.29-86.19,31.29-86.19c4.19-11.56-6.24-23.08-18.12-20.1Z" fill="#981b49"/><path d="M243.69.49L112.58,34.57c-3.04.79-7.07,3.48-8.96,5.98l-25.33,33.42c-1.89,2.5-.94,5.09,2.13,5.75l28.61,6.19c-1.13-.74-2.17-1.58-3.09-2.55-1.73-1.83-3.02-4.01-3.87-6.56-.85-2.55-1.14-5.35-.87-8.41.27-3.14,1.07-5.98,2.38-8.52,1.31-2.54,3.01-4.71,5.1-6.5s4.46-3.16,7.14-4.12c2.68-.96,5.51-1.44,8.51-1.44,2.78,0,5.47.49,8.07,1.47,2.6.98,4.65,2.41,6.15,4.29l-7.01,6.42c-.78-1.22-1.87-2.12-3.26-2.71-1.39-.59-2.85-.89-4.36-.89-1.67,0-3.22.3-4.66.91-1.44.61-2.71,1.45-3.8,2.52-1.09,1.07-1.98,2.33-2.66,3.79-.68,1.46-1.1,3.05-1.25,4.79-.16,1.77-.02,3.39.41,4.87.43,1.48,1.08,2.74,1.97,3.79.89,1.05,1.99,1.87,3.31,2.46,1.32.59,2.79.89,4.42.89,1.89,0,3.57-.37,5.04-1.11,1.47-.74,2.68-1.7,3.64-2.88l6.07,6.2c-1.92,1.99-4.2,3.57-6.86,4.73-1.95.86-4.1,1.39-6.42,1.62l48.19,10.42,1.38-6.31c.43.15.91.27,1.44.36.53.09,1.02.14,1.46.14,1.41,0,2.45-.32,3.14-.97.68-.65,1.3-1.56,1.85-2.74l1.09-2.27-9.18-27.11h10.11l4.62,17.71h.17l7.05-17.71h9.67l-15.16,31.71c-.68,1.44-1.41,2.72-2.2,3.84s-1.68,2.08-2.7,2.88c-1.01.79-2.18,1.39-3.49,1.8-.47.15-.98.25-1.5.35l44.69,9.67c3.07.66,6.21-1.28,6.99-4.32l24.24-94.67c1.75-6.82-4.47-13.01-11.28-11.24ZM147.25,88.03h-9.11l2.41-27.56h9.11l-2.41,27.56ZM150.51,53.64c-.33.61-.75,1.13-1.25,1.58-.5.44-1.09.79-1.76,1.05s-1.36.39-2.06.39c-1.48,0-2.68-.49-3.59-1.47-.91-.98-1.31-2.15-1.19-3.51.06-.66.24-1.3.56-1.91.31-.61.73-1.14,1.25-1.58.52-.44,1.11-.8,1.76-1.08s1.35-.41,2.09-.41c.7,0,1.37.13,1.99.39.63.26,1.15.61,1.58,1.05.42.44.75.97.97,1.58.22.61.31,1.26.24,1.96-.06.7-.26,1.36-.59,1.97ZM171.16,67.22h-6.5l-.92,10.55c-.11,1.3.05,2.27.49,2.92.44.65,1.31.97,2.61.97.44,0,.92-.04,1.43-.11.51-.07.93-.18,1.28-.33l-.47,6.64c-.65.22-1.46.41-2.44.58-.98.17-1.95.25-2.91.25-1.85,0-3.39-.23-4.61-.69-1.22-.46-2.17-1.13-2.85-2-.68-.87-1.14-1.9-1.37-3.11-.23-1.2-.28-2.54-.15-4.02l1.02-11.65h-4.44l.59-6.75h4.39l.63-7.25h8.94l-.63,7.25h6.5l-.59,6.75ZM238.77,73.26c-.21,2.36-.79,4.51-1.76,6.45s-2.25,3.6-3.85,4.98c-1.6,1.38-3.48,2.46-5.64,3.24-2.16.77-4.52,1.16-7.07,1.16s-4.89-.39-6.9-1.16c-2.01-.78-3.67-1.85-4.99-3.24-1.32-1.38-2.29-3.04-2.9-4.98-.61-1.94-.81-4.08-.6-6.45l2.13-24.4h9.44l-2.07,23.63c-.09,1.07-.04,2.08.15,3.04s.54,1.82,1.05,2.57c.51.76,1.22,1.36,2.12,1.8.9.44,2.02.66,3.36.66s2.49-.22,3.47-.66c.98-.44,1.8-1.04,2.46-1.8.66-.76,1.16-1.61,1.5-2.57.34-.96.56-1.97.66-3.04l2.07-23.63h9.5l-2.13,24.4Z" fill="url(#b)"/><path d="M171.3,99.38l1.38-6.31c.43.15.91.27,1.44.36.53.09,1.02.14,1.46.14,1.41,0,2.45-.32,3.14-.97.68-.65,1.3-1.56,1.85-2.74l1.09-2.27-9.18-27.11h10.11l4.62,17.71h.17l7.05-17.71h9.67l-15.16,31.71c-.68,1.44-1.41,2.72-2.2,3.84s-1.68,2.08-2.7,2.88c-1.01.79-2.18,1.39-3.49,1.8-.47.15-.98.25-1.5.35l-7.74-1.67ZM109.03,85.91c-1.13-.74-2.17-1.58-3.09-2.55-1.73-1.83-3.02-4.01-3.87-6.56-.85-2.55-1.14-5.35-.87-8.41.27-3.14,1.07-5.98,2.38-8.52,1.31-2.54,3.01-4.71,5.1-6.5s4.46-3.16,7.14-4.12c2.68-.96,5.51-1.44,8.51-1.44,2.78,0,5.47.49,8.07,1.47,2.6.98,4.65,2.41,6.15,4.29l-7.01,6.42c-.78-1.22-1.87-2.12-3.26-2.71-1.39-.59-2.85-.89-4.36-.89-1.67,0-3.22.3-4.66.91-1.44.61-2.71,1.45-3.8,2.52-1.09,1.07-1.98,2.33-2.66,3.79-.68,1.46-1.1,3.05-1.25,4.79-.16,1.77-.02,3.39.41,4.87.43,1.48,1.08,2.74,1.97,3.79.89,1.05,1.99,1.87,3.31,2.46,1.32.59,2.79.89,4.42.89,1.89,0,3.57-.37,5.04-1.11,1.47-.74,2.68-1.7,3.64-2.88l6.07,6.2c-1.92,1.99-4.2,3.57-6.86,4.73-1.95.86-4.1,1.39-6.42,1.62l-14.08-3.05ZM147.25,88.03h-9.11l2.41-27.56h9.11l-2.41,27.56ZM150.51,53.64c-.33.61-.75,1.13-1.25,1.58-.5.44-1.09.79-1.76,1.05s-1.36.39-2.06.39c-1.48,0-2.68-.49-3.59-1.47-.91-.98-1.31-2.15-1.19-3.51.06-.66.24-1.3.56-1.91.31-.61.73-1.14,1.25-1.58.52-.44,1.11-.8,1.76-1.08s1.35-.41,2.09-.41c.7,0,1.37.13,1.99.39.63.26,1.15.61,1.58,1.05.42.44.75.97.97,1.58.22.61.31,1.26.24,1.96-.06.7-.26,1.36-.59,1.97ZM171.16,67.22h-6.5l-.92,10.55c-.11,1.3.05,2.27.49,2.92.44.65,1.31.97,2.61.97.44,0,.92-.04,1.43-.11.51-.07.93-.18,1.28-.33l-.47,6.64c-.65.22-1.46.41-2.44.58-.98.17-1.95.25-2.91.25-1.85,0-3.39-.23-4.61-.69-1.22-.46-2.17-1.13-2.85-2-.68-.87-1.14-1.9-1.37-3.11-.23-1.2-.28-2.54-.15-4.02l1.02-11.65h-4.44l.59-6.75h4.39l.63-7.25h8.94l-.63,7.25h6.5l-.59,6.75ZM238.77,73.26c-.21,2.36-.79,4.51-1.76,6.45s-2.25,3.6-3.85,4.98c-1.6,1.38-3.48,2.46-5.64,3.24-2.16.77-4.52,1.16-7.07,1.16s-4.89-.39-6.9-1.16c-2.01-.78-3.67-1.85-4.99-3.24-1.32-1.38-2.29-3.04-2.9-4.98-.61-1.94-.81-4.08-.6-6.45l2.13-24.4h9.44l-2.07,23.63c-.09,1.07-.04,2.08.15,3.04s.54,1.82,1.05,2.57c.51.76,1.22,1.36,2.12,1.8.9.44,2.02.66,3.36.66s2.49-.22,3.47-.66c.98-.44,1.8-1.04,2.46-1.8.66-.76,1.16-1.61,1.5-2.57.34-.96.56-1.97.66-3.04l2.07-23.63h9.5l-2.13,24.4Z" fill="#fff"/></svg>